<?xml version="1.0" encoding="UTF-8" standalone="no"?>
<!-- Created with Inkscape (http://www.inkscape.org/) -->
<svg
   xmlns:dc="http://purl.org/dc/elements/1.1/"
   xmlns:cc="http://web.resource.org/cc/"
   xmlns:rdf="http://www.w3.org/1999/02/22-rdf-syntax-ns#"
   xmlns:svg="http://www.w3.org/2000/svg"
   xmlns="http://www.w3.org/2000/svg"
   xmlns:sodipodi="http://sodipodi.sourceforge.net/DTD/sodipodi-0.dtd"
   xmlns:inkscape="http://www.inkscape.org/namespaces/inkscape"
   version="1.0"
   width="500"
   height="86.657097"
   id="svg12704"
   sodipodi:version="0.32"
   inkscape:version="0.45.1"
   sodipodi:docname="Laurentian.svg"
   inkscape:output_extension="org.inkscape.output.svg.inkscape"
   sodipodi:docbase="C:\Documents and Settings\Wraith\Desktop">
  <metadata
     id="metadata59">
    <rdf:RDF>
      <cc:Work
         rdf:about="">
        <dc:format>image/svg+xml</dc:format>
        <dc:type
           rdf:resource="http://purl.org/dc/dcmitype/StillImage" />
      </cc:Work>
    </rdf:RDF>
  </metadata>
  <sodipodi:namedview
     inkscape:window-height="573"
     inkscape:window-width="744"
     inkscape:pageshadow="2"
     inkscape:pageopacity="0.0"
     guidetolerance="10.0"
     gridtolerance="10.0"
     objecttolerance="10.0"
     borderopacity="1.0"
     bordercolor="#666666"
     pagecolor="#ffffff"
     id="base"
     inkscape:zoom="0.35824168"
     inkscape:cx="372.04724"
     inkscape:cy="414.52463"
     inkscape:window-x="22"
     inkscape:window-y="29"
     inkscape:current-layer="svg12704" />
  <defs
     id="defs12706" />
  <g
     id="layer1"
     transform="translate(-147.73358,-261.7657)">
    <g
       transform="matrix(1.25,0,0,1.25,-36.933394,-87.105696)"
       id="g12764">
      <polygon
         points="229.27,697.99 233.34,697.99 233.34,685.95 238.31,685.95 238.31,682.87 229.27,682.87 229.27,697.99 "
         transform="matrix(1.5256531,0,0,-1.5256531,-118.82853,1347.0848)"
         style="font-style:normal;font-variant:normal;font-weight:normal;font-stretch:normal;letter-spacing:normal;word-spacing:normal;text-anchor:start;fill:#005daa;fill-opacity:1;fill-rule:nonzero;stroke:#005daa;stroke-width:0;stroke-linecap:butt;stroke-linejoin:miter;stroke-miterlimit:10.43299961;stroke-dasharray:none;stroke-dashoffset:0;stroke-opacity:1"
         id="polygon6832" />
      <path
         d="M 283.65625,-13.03125 C 281.30627,-13.03125 279.53751,-12.531247 278.375,-12.09375 L 278.5625,-8.59375 C 279.58749,-9.2437458 281.10002,-9.9374995 282.625,-9.9375 C 284.53749,-9.9375 285.25001,-8.8999939 285.25,-8 L 285.25,-7.59375 L 284,-7.59375 C 279.10003,-7.59375 276.75,-5.88748 276.75,-2.75 C 276.75,-0.03751736 278.54377,1.75 281.03125,1.75 C 282.73124,1.75 283.85002,1.03124 285.25,-0.53125 C 285.25,0.11874584 285.35626,0.74375429 285.40625,1.40625 L 289.75,1.40625 L 289.71875,1.25 L 289.71875,1.09375 L 289.6875,0.90625 L 289.6875,0.71875 L 289.65625,0.53125 L 289.65625,0.34375 L 289.625,0.15625 L 289.625,-0.03125 L 289.625,-0.21875 L 289.59375,-0.4375 L 289.59375,-0.65625 L 289.59375,-0.84375 L 289.5625,-1.28125 L 289.5625,-1.6875 L 289.5625,-7.78125 C 289.5625,-10.668732 288.59371,-13.03125 283.65625,-13.03125 z M 284.6875,-5.40625 L 285.25,-5.40625 L 285.25,-4.96875 C 285.25,-3.6312586 284.99997,-1.34375 282.75,-1.34375 C 281.75001,-1.34375 281.09374,-1.8437581 281.09375,-3.09375 C 281.09375,-4.7437394 282.525,-5.40625 284.6875,-5.40625 z "
         transform="matrix(1.2205303,0,0,1.2205303,-91.366596,303.53125)"
         style="font-style:normal;font-variant:normal;font-weight:normal;font-stretch:normal;letter-spacing:normal;word-spacing:normal;text-anchor:start;fill:#005daa;fill-opacity:1;fill-rule:nonzero;stroke:#005daa;stroke-width:0;stroke-linecap:butt;stroke-linejoin:miter;stroke-miterlimit:10.43299961;stroke-dasharray:none;stroke-dashoffset:0;stroke-opacity:1"
         id="path6834" />
      <path
         d="M 262.07,684.74 L 262.07,684.58 L 262.08,684.43 L 262.08,684.28 L 262.08,684.13 L 262.09,683.99 L 262.09,683.92 L 262.1,683.86 L 262.1,683.79 L 262.11,683.73 L 262.11,683.66 L 262.11,683.6 L 262.12,683.54 L 262.12,683.48 L 262.13,683.43 L 262.13,683.37 L 262.14,683.32 L 262.14,683.27 L 262.15,683.22 L 262.15,683.17 L 262.16,683.13 L 262.17,683.08 L 262.17,683.04 L 262.18,683 L 262.18,682.97 L 262.19,682.93 L 262.2,682.9 L 262.2,682.87 L 258.55,682.87 C 258.48,683.33 258.46,684.13 258.46,684.76 L 258.42,684.76 C 258.2,684.15 257.45,682.61 255.24,682.61 C 253.32,682.61 251.82,683.76 251.82,686.25 L 251.82,694.16 L 255.72,694.16 L 255.72,687.38 C 255.72,686.3 256.04,685.78 256.82,685.78 C 257.95,685.78 258.18,686.79 258.18,687.64 L 258.18,694.16 L 262.07,694.16 L 262.07,684.74 z "
         transform="matrix(1.5256531,0,0,-1.5256531,-118.82853,1347.0848)"
         style="font-style:normal;font-variant:normal;font-weight:normal;font-stretch:normal;letter-spacing:normal;word-spacing:normal;text-anchor:start;fill:#005daa;fill-opacity:1;fill-rule:nonzero;stroke:#005daa;stroke-width:0;stroke-linecap:butt;stroke-linejoin:miter;stroke-miterlimit:10.43299961;stroke-dasharray:none;stroke-dashoffset:0;stroke-opacity:1"
         id="path6838" />
      <path
         d="M 264.23,690.89 L 264.23,691.04 L 264.23,691.18 L 264.23,691.33 L 264.23,691.47 L 264.23,691.61 L 264.23,691.74 L 264.23,691.87 L 264.22,692 L 264.22,692.13 L 264.22,692.25 L 264.21,692.37 L 264.21,692.49 L 264.21,692.61 L 264.2,692.72 L 264.2,692.83 L 264.19,692.93 L 264.19,693.03 L 264.19,693.13 L 264.18,693.23 L 264.18,693.32 L 264.17,693.41 L 264.16,693.49 L 264.16,693.58 L 264.15,693.66 L 264.15,693.73 L 264.14,693.8 L 264.14,693.87 L 264.13,693.94 L 264.12,694 L 264.12,694.06 L 264.11,694.11 L 264.11,694.16 L 267.76,694.16 C 267.82,693.7 267.85,692.9 267.85,692.27 L 267.89,692.27 C 268.21,693.16 268.91,694.42 270.77,694.42 C 271.05,694.42 271.18,694.4 271.41,694.35 L 271.41,690.95 C 271.24,691.02 270.7,691.08 270.25,691.08 C 268.99,691.08 268.13,689.98 268.13,688.48 L 268.13,682.87 L 264.23,682.87 L 264.23,690.89 z "
         transform="matrix(1.5256531,0,0,-1.5256531,-118.82853,1347.0848)"
         style="font-style:normal;font-variant:normal;font-weight:normal;font-stretch:normal;letter-spacing:normal;word-spacing:normal;text-anchor:start;fill:#005daa;fill-opacity:1;fill-rule:nonzero;stroke:#005daa;stroke-width:0;stroke-linecap:butt;stroke-linejoin:miter;stroke-miterlimit:10.43299961;stroke-dasharray:none;stroke-dashoffset:0;stroke-opacity:1"
         id="path6840" />
      <path
         d="M 324.5,-13.03125 C 320.26253,-13.03125 317.96874,-9.593725 317.96875,-5.71875 C 317.96875,-2.0937732 319.61254,1.7749998 325.3125,1.75 C 327.28749,1.7125002 329.08752,1.3124976 330.25,0.9375 L 330.125,-2.46875 C 328.93751,-1.9562533 327.32498,-1.34375 326,-1.34375 L 325.84375,-1.34375 L 325.6875,-1.34375 L 325.5,-1.375 L 325.34375,-1.375 L 325.1875,-1.40625 L 325.03125,-1.40625 L 324.875,-1.46875 L 324.71875,-1.5 L 324.5625,-1.53125 L 324.4375,-1.5625 L 324.28125,-1.625 L 324.125,-1.6875 L 324,-1.75 L 323.875,-1.8125 L 323.75,-1.90625 L 323.625,-1.96875 L 323.5,-2.0625 L 323.40625,-2.15625 L 323.3125,-2.25 L 323.1875,-2.375 L 323.09375,-2.46875 L 323,-2.59375 L 322.9375,-2.75 L 322.84375,-2.875 L 322.78125,-3.03125 L 322.71875,-3.1875 L 322.65625,-3.34375 L 322.625,-3.53125 L 322.5625,-3.71875 L 322.5625,-3.90625 L 322.53125,-4.09375 L 322.5,-4.3125 L 331,-4.3125 L 331,-5.6875 C 331,-9.5374754 328.91248,-13.03125 324.5,-13.03125 z M 324.59375,-10.03125 C 326.05624,-10.03125 326.56249,-9.1499879 326.5625,-7.25 L 326.5625,-6.84375 L 322.375,-6.84375 C 322.375,-8.7937375 323.21877,-10.03125 324.59375,-10.03125 z "
         transform="matrix(1.2205303,0,0,1.2205303,-91.366596,303.53125)"
         style="font-style:normal;font-variant:normal;font-weight:normal;font-stretch:normal;letter-spacing:normal;word-spacing:normal;text-anchor:start;fill:#005daa;fill-opacity:1;fill-rule:nonzero;stroke:#005daa;stroke-width:0;stroke-linecap:butt;stroke-linejoin:miter;stroke-miterlimit:10.43299961;stroke-dasharray:none;stroke-dashoffset:0;stroke-opacity:1"
         id="path6842" />
      <path
         d="M 284.67,691.86 L 284.67,692.02 L 284.67,692.18 L 284.66,692.5 L 284.66,692.67 L 284.65,692.82 L 284.64,692.98 L 284.63,693.13 L 284.62,693.28 L 284.61,693.43 L 284.6,693.57 L 284.59,693.7 L 284.59,693.77 L 284.58,693.83 L 284.57,693.89 L 284.57,693.95 L 284.56,694 L 284.56,694.06 L 284.55,694.11 L 284.54,694.16 L 288.2,694.16 C 288.26,693.7 288.28,692.9 288.28,692.27 L 288.33,692.27 C 288.54,692.88 289.3,694.42 291.51,694.42 C 293.43,694.42 294.92,693.27 294.92,690.78 L 294.92,682.87 L 291.03,682.87 L 291.03,689.65 C 291.03,690.73 290.7,691.26 289.97,691.26 C 289,691.26 288.57,690.24 288.57,689.07 L 288.57,682.87 L 284.67,682.87 L 284.67,691.86 z "
         transform="matrix(1.5256531,0,0,-1.5256531,-118.82853,1347.0848)"
         style="font-style:normal;font-variant:normal;font-weight:normal;font-stretch:normal;letter-spacing:normal;word-spacing:normal;text-anchor:start;fill:#005daa;fill-opacity:1;fill-rule:nonzero;stroke:#005daa;stroke-width:0;stroke-linecap:butt;stroke-linejoin:miter;stroke-miterlimit:10.43299961;stroke-dasharray:none;stroke-dashoffset:0;stroke-opacity:1"
         id="path6846" />
      <path
         d="M 296.29,694.16 L 298.21,694.16 L 298.21,696.54 L 302.1,697.76 L 302.1,694.16 L 304.29,694.16 L 304.29,691.52 L 302.1,691.52 L 302.1,686.71 C 302.1,685.75 302.68,685.34 303.38,685.34 C 303.77,685.34 304.11,685.41 304.29,685.52 L 304.39,682.87 C 303.89,682.77 302.95,682.61 301.82,682.61 C 299.68,682.61 298.21,683.82 298.21,685.93 L 298.21,691.52 L 296.29,691.52 L 296.29,694.16 z "
         transform="matrix(1.5256531,0,0,-1.5256531,-118.82853,1347.0848)"
         style="font-style:normal;font-variant:normal;font-weight:normal;font-stretch:normal;letter-spacing:normal;word-spacing:normal;text-anchor:start;fill:#005daa;fill-opacity:1;fill-rule:nonzero;stroke:#005daa;stroke-width:0;stroke-linecap:butt;stroke-linejoin:miter;stroke-miterlimit:10.43299961;stroke-dasharray:none;stroke-dashoffset:0;stroke-opacity:1"
         id="path6848" />
      <polygon
         points="306.34,695.87 310.23,695.87 310.23,699.12 306.34,699.12 306.34,695.87 "
         transform="matrix(1.5256531,0,0,-1.5256531,-118.82853,1347.0848)"
         style="font-style:normal;font-variant:normal;font-weight:normal;font-stretch:normal;letter-spacing:normal;word-spacing:normal;text-anchor:start;fill:#005daa;fill-opacity:1;fill-rule:nonzero;stroke:#005daa;stroke-width:0;stroke-linecap:butt;stroke-linejoin:miter;stroke-miterlimit:10.43299961;stroke-dasharray:none;stroke-dashoffset:0;stroke-opacity:1"
         id="polygon6850" />
      <polygon
         points="306.34,682.87 310.23,682.87 310.23,694.16 306.34,694.16 306.34,682.87 "
         transform="matrix(1.5256531,0,0,-1.5256531,-118.82853,1347.0848)"
         style="font-style:normal;font-variant:normal;font-weight:normal;font-stretch:normal;letter-spacing:normal;word-spacing:normal;text-anchor:start;fill:#005daa;fill-opacity:1;fill-rule:nonzero;stroke:#005daa;stroke-width:0;stroke-linecap:butt;stroke-linejoin:miter;stroke-miterlimit:10.43299961;stroke-dasharray:none;stroke-dashoffset:0;stroke-opacity:1"
         id="polygon6852" />
      <path
         d="M 374.625,-13.03125 C 372.26252,-13.03125 370.50624,-12.531247 369.34375,-12.09375 L 369.5,-8.59375 C 370.52499,-9.2437458 372.05002,-9.9374995 373.5625,-9.9375 C 375.48749,-9.9375 376.1875,-8.8999939 376.1875,-8 L 376.1875,-7.59375 L 374.96875,-7.59375 C 370.06878,-7.59375 367.71876,-5.88748 367.71875,-2.75 C 367.71875,-0.03751736 369.51251,1.75 372,1.75 C 373.69999,1.75 374.78751,1.03124 376.1875,-0.53125 C 376.1875,0.11874584 376.32499,0.74375429 376.375,1.40625 L 380.6875,1.40625 L 380.6875,1.25 L 380.65625,1.09375 L 380.625,0.90625 L 380.625,0.71875 L 380.625,0.53125 L 380.59375,0.34375 L 380.59375,0.15625 L 380.5625,-0.03125 L 380.5625,-0.21875 L 380.5625,-0.4375 L 380.5625,-0.65625 L 380.53125,-0.84375 L 380.53125,-1.28125 L 380.53125,-1.6875 L 380.53125,-7.78125 C 380.53125,-10.668732 379.56247,-13.03125 374.625,-13.03125 z M 375.625,-5.40625 L 376.1875,-5.40625 L 376.1875,-4.96875 C 376.1875,-3.6312586 375.96874,-1.34375 373.71875,-1.34375 C 372.71876,-1.34375 372.03125,-1.8437581 372.03125,-3.09375 C 372.03125,-4.7437394 373.46252,-5.40625 375.625,-5.40625 z "
         transform="matrix(1.2205303,0,0,1.2205303,-91.366596,303.53125)"
         style="font-style:normal;font-variant:normal;font-weight:normal;font-stretch:normal;letter-spacing:normal;word-spacing:normal;text-anchor:start;fill:#005daa;fill-opacity:1;fill-rule:nonzero;stroke:#005daa;stroke-width:0;stroke-linecap:butt;stroke-linejoin:miter;stroke-miterlimit:10.43299961;stroke-dasharray:none;stroke-dashoffset:0;stroke-opacity:1"
         id="path6854" />
      <path
         d="M 324.59,691.86 L 324.59,692.02 L 324.58,692.18 L 324.57,692.5 L 324.57,692.67 L 324.56,692.82 L 324.55,692.98 L 324.54,693.13 L 324.53,693.28 L 324.52,693.43 L 324.51,693.57 L 324.5,693.7 L 324.5,693.77 L 324.49,693.83 L 324.48,693.89 L 324.48,693.95 L 324.47,694 L 324.47,694.06 L 324.46,694.11 L 324.45,694.16 L 328.11,694.16 C 328.17,693.7 328.2,692.9 328.2,692.27 L 328.24,692.27 C 328.45,692.88 329.21,694.42 331.42,694.42 C 333.34,694.42 334.84,693.27 334.84,690.78 L 334.84,682.87 L 330.94,682.87 L 330.94,689.65 C 330.94,690.73 330.62,691.26 329.88,691.26 C 328.91,691.26 328.48,690.24 328.48,689.07 L 328.48,682.87 L 324.59,682.87 L 324.59,691.86 z "
         transform="matrix(1.5256531,0,0,-1.5256531,-118.82853,1347.0848)"
         style="font-style:normal;font-variant:normal;font-weight:normal;font-stretch:normal;letter-spacing:normal;word-spacing:normal;text-anchor:start;fill:#005daa;fill-opacity:1;fill-rule:nonzero;stroke:#005daa;stroke-width:0;stroke-linecap:butt;stroke-linejoin:miter;stroke-miterlimit:10.43299961;stroke-dasharray:none;stroke-dashoffset:0;stroke-opacity:1"
         id="path6858" />
      <path
         d="M 337.64,697.99 L 338.98,697.99 L 338.98,688.46 C 338.98,686.19 339.42,683.98 342.12,683.98 C 344.95,683.98 345.25,686.43 345.25,688.46 L 345.25,697.99 L 346.6,697.99 L 346.6,688.44 C 346.6,685.45 345.62,682.72 342.12,682.72 C 338.62,682.72 337.64,685.19 337.64,688.44 L 337.64,697.99 z "
         transform="matrix(1.5256531,0,0,-1.5256531,-118.82853,1347.0848)"
         style="font-style:normal;font-variant:normal;font-weight:normal;font-stretch:normal;letter-spacing:normal;word-spacing:normal;text-anchor:start;fill:#005daa;fill-opacity:1;fill-rule:nonzero;stroke:#005daa;stroke-width:0;stroke-linecap:butt;stroke-linejoin:miter;stroke-miterlimit:10.43299961;stroke-dasharray:none;stroke-dashoffset:0;stroke-opacity:1"
         id="path6860" />
      <path
         d="M 349.8,690.5 L 349.79,690.93 L 349.79,691.35 L 349.77,691.78 L 349.76,692.21 L 349.73,693.06 L 349.72,693.49 L 349.71,693.92 L 350.88,693.92 C 350.92,693.43 350.94,693.1 350.96,692.3 L 351.01,692.3 C 351.27,692.77 351.98,694.07 353.82,694.07 C 356.86,694.07 356.86,691.02 356.86,690.28 L 356.86,682.87 L 355.61,682.87 L 355.61,690.32 C 355.61,691.08 355.61,692.9 353.55,692.9 C 352.02,692.9 351.05,691.45 351.05,689.74 L 351.05,682.87 L 349.8,682.87 L 349.8,690.5 z "
         transform="matrix(1.5256531,0,0,-1.5256531,-118.82853,1347.0848)"
         style="font-style:normal;font-variant:normal;font-weight:normal;font-stretch:normal;letter-spacing:normal;word-spacing:normal;text-anchor:start;fill:#005daa;fill-opacity:1;fill-rule:nonzero;stroke:#005daa;stroke-width:0;stroke-linecap:butt;stroke-linejoin:miter;stroke-miterlimit:10.43299961;stroke-dasharray:none;stroke-dashoffset:0;stroke-opacity:1"
         id="path6862" />
      <polygon
         points="359.79,696.37 361.3,696.37 361.3,698.32 359.79,698.32 359.79,696.37 "
         transform="matrix(1.5256531,0,0,-1.5256531,-118.82853,1347.0848)"
         style="font-style:normal;font-variant:normal;font-weight:normal;font-stretch:normal;letter-spacing:normal;word-spacing:normal;text-anchor:start;fill:#005daa;fill-opacity:1;fill-rule:nonzero;stroke:#005daa;stroke-width:0;stroke-linecap:butt;stroke-linejoin:miter;stroke-miterlimit:10.43299961;stroke-dasharray:none;stroke-dashoffset:0;stroke-opacity:1"
         id="polygon6864" />
      <polygon
         points="359.91,682.87 361.17,682.87 361.17,693.92 359.91,693.92 359.91,682.87 "
         transform="matrix(1.5256531,0,0,-1.5256531,-118.82853,1347.0848)"
         style="font-style:normal;font-variant:normal;font-weight:normal;font-stretch:normal;letter-spacing:normal;word-spacing:normal;text-anchor:start;fill:#005daa;fill-opacity:1;fill-rule:nonzero;stroke:#005daa;stroke-width:0;stroke-linecap:butt;stroke-linejoin:miter;stroke-miterlimit:10.43299961;stroke-dasharray:none;stroke-dashoffset:0;stroke-opacity:1"
         id="polygon6866" />
      <polygon
         points="362.98,693.92 364.32,693.92 366.94,684.3 366.98,684.3 369.69,693.92 370.94,693.92 367.72,682.87 366.21,682.87 362.98,693.92 "
         transform="matrix(1.5256531,0,0,-1.5256531,-118.82853,1347.0848)"
         style="font-style:normal;font-variant:normal;font-weight:normal;font-stretch:normal;letter-spacing:normal;word-spacing:normal;text-anchor:start;fill:#005daa;fill-opacity:1;fill-rule:nonzero;stroke:#005daa;stroke-width:0;stroke-linecap:butt;stroke-linejoin:miter;stroke-miterlimit:10.43299961;stroke-dasharray:none;stroke-dashoffset:0;stroke-opacity:1"
         id="polygon6868" />
      <path
         d="M 447.46875,-12.59375 C 445.14376,-12.59375 442.59374,-10.687467 442.59375,-5.5 C 442.59375,-4.1125089 442.60003,1.59375 448,1.59375 C 449.64999,1.59375 450.55001,1.1624977 451.1875,0.8125 L 451.125,-1 C 450.33751,-0.30000448 449.04376,0.15625001 448.15625,0.15625 L 448.09375,0.15625 L 448,0.15625 L 447.90625,0.15625 L 447.8125,0.125 L 447.6875,0.125 L 447.5625,0.09375 L 447.4375,0.09375 L 447.28125,0.0625 L 447.125,0.03125 L 446.96875,-0.03125 L 446.8125,-0.0625 L 446.65625,-0.125 L 446.46875,-0.21875 L 446.3125,-0.28125 L 446.125,-0.375 L 445.96875,-0.5 L 445.8125,-0.625 L 445.625,-0.78125 L 445.5,-0.9375 L 445.40625,-1.03125 L 445.3125,-1.09375 L 445.25,-1.21875 L 445.1875,-1.3125 L 445.125,-1.40625 L 445.03125,-1.53125 L 444.96875,-1.625 L 444.90625,-1.75 L 444.84375,-1.875 L 444.78125,-2.03125 L 444.71875,-2.15625 L 444.6875,-2.28125 L 444.625,-2.4375 L 444.5625,-2.59375 L 444.53125,-2.78125 L 444.46875,-2.9375 L 444.4375,-3.09375 L 444.40625,-3.28125 L 444.375,-3.46875 L 444.34375,-3.65625 L 444.3125,-3.875 L 444.3125,-4.0625 L 444.28125,-4.28125 L 444.28125,-4.5 L 444.25,-4.75 L 444.25,-4.96875 L 451.875,-4.96875 C 451.875,-8.3312285 451.46873,-12.59375 447.46875,-12.59375 z M 447.375,-11.125 L 447.5,-11.125 L 447.625,-11.09375 L 447.75,-11.09375 L 447.875,-11.0625 L 448,-11.03125 L 448.125,-11 L 448.25,-10.96875 L 448.375,-10.90625 L 448.5,-10.84375 L 448.625,-10.78125 L 448.71875,-10.6875 L 448.84375,-10.59375 L 448.9375,-10.5 L 449.0625,-10.40625 L 449.1875,-10.28125 L 449.28125,-10.15625 L 449.375,-10 L 449.46875,-9.84375 L 449.5625,-9.6875 L 449.65625,-9.53125 L 449.75,-9.34375 L 449.8125,-9.15625 L 449.875,-8.9375 L 449.9375,-8.71875 L 450,-8.46875 L 450.0625,-8.21875 L 450.09375,-7.96875 L 450.125,-7.6875 L 450.15625,-7.53125 L 450.15625,-7.40625 L 450.1875,-7.25 L 450.1875,-7.09375 L 450.1875,-6.9375 L 450.1875,-6.78125 L 450.1875,-6.59375 L 450.1875,-6.4375 L 444.25,-6.4375 C 444.25,-8.2249886 445.25002,-11.125 447.375,-11.125 z "
         transform="matrix(1.2205303,0,0,1.2205303,-91.366596,303.53125)"
         style="font-style:normal;font-variant:normal;font-weight:normal;font-stretch:normal;letter-spacing:normal;word-spacing:normal;text-anchor:start;fill:#005daa;fill-opacity:1;fill-rule:nonzero;stroke:#005daa;stroke-width:0;stroke-linecap:butt;stroke-linejoin:miter;stroke-miterlimit:10.43299961;stroke-dasharray:none;stroke-dashoffset:0;stroke-opacity:1"
         id="path6870" />
      <path
         d="M 381.86,690.5 L 381.86,690.93 L 381.85,691.35 L 381.84,691.78 L 381.83,692.21 L 381.8,693.06 L 381.78,693.49 L 381.77,693.92 L 382.94,693.92 C 382.96,693.27 383.01,692.62 383.03,692.16 L 383.07,692.16 C 383.87,693.75 384.8,694.07 386.02,694.07 L 386.02,692.73 C 384.02,692.73 383.12,691.86 383.12,689.83 L 383.12,682.87 L 381.86,682.87 L 381.86,690.5 z "
         transform="matrix(1.5256531,0,0,-1.5256531,-118.82853,1347.0848)"
         style="font-style:normal;font-variant:normal;font-weight:normal;font-stretch:normal;letter-spacing:normal;word-spacing:normal;text-anchor:start;fill:#005daa;fill-opacity:1;fill-rule:nonzero;stroke:#005daa;stroke-width:0;stroke-linecap:butt;stroke-linejoin:miter;stroke-miterlimit:10.43299961;stroke-dasharray:none;stroke-dashoffset:0;stroke-opacity:1"
         id="path6874" />
      <path
         d="M 392.43,692.45 L 392.32,692.49 L 392.2,692.54 L 392.09,692.58 L 391.98,692.62 L 391.86,692.66 L 391.75,692.7 L 391.64,692.73 L 391.53,692.77 L 391.41,692.79 L 391.3,692.82 L 391.18,692.85 L 391.06,692.86 L 390.94,692.88 L 390.81,692.89 L 390.75,692.9 L 390.69,692.9 L 390.62,692.9 L 390.55,692.9 C 389.26,692.9 388.67,691.93 388.67,691.15 C 388.67,690.13 389.06,689.91 390.55,689.09 C 392.07,688.27 393.23,687.7 393.23,685.93 C 393.23,683.93 391.83,682.72 389.97,682.72 C 388.61,682.72 387.83,683 387.18,683.24 L 387.36,684.65 C 387.72,684.39 388.84,683.89 389.86,683.89 C 391.05,683.89 391.89,684.8 391.89,685.8 C 391.89,686.86 391.22,687.29 389.93,687.94 C 388.07,688.88 387.33,689.46 387.33,691.02 C 387.33,693.1 389.11,694.07 390.57,694.07 C 391.31,694.07 392.2,693.88 392.61,693.75 L 392.43,692.45 z "
         transform="matrix(1.5256531,0,0,-1.5256531,-118.82853,1347.0848)"
         style="font-style:normal;font-variant:normal;font-weight:normal;font-stretch:normal;letter-spacing:normal;word-spacing:normal;text-anchor:start;fill:#005daa;fill-opacity:1;fill-rule:nonzero;stroke:#005daa;stroke-width:0;stroke-linecap:butt;stroke-linejoin:miter;stroke-miterlimit:10.43299961;stroke-dasharray:none;stroke-dashoffset:0;stroke-opacity:1"
         id="path6876" />
      <polygon
         points="395.46,696.37 396.98,696.37 396.98,698.32 395.46,698.32 395.46,696.37 "
         transform="matrix(1.5256531,0,0,-1.5256531,-118.82853,1347.0848)"
         style="font-style:normal;font-variant:normal;font-weight:normal;font-stretch:normal;letter-spacing:normal;word-spacing:normal;text-anchor:start;fill:#005daa;fill-opacity:1;fill-rule:nonzero;stroke:#005daa;stroke-width:0;stroke-linecap:butt;stroke-linejoin:miter;stroke-miterlimit:10.43299961;stroke-dasharray:none;stroke-dashoffset:0;stroke-opacity:1"
         id="polygon6878" />
      <polygon
         points="395.59,682.87 396.85,682.87 396.85,693.92 395.59,693.92 395.59,682.87 "
         transform="matrix(1.5256531,0,0,-1.5256531,-118.82853,1347.0848)"
         style="font-style:normal;font-variant:normal;font-weight:normal;font-stretch:normal;letter-spacing:normal;word-spacing:normal;text-anchor:start;fill:#005daa;fill-opacity:1;fill-rule:nonzero;stroke:#005daa;stroke-width:0;stroke-linecap:butt;stroke-linejoin:miter;stroke-miterlimit:10.43299961;stroke-dasharray:none;stroke-dashoffset:0;stroke-opacity:1"
         id="polygon6880" />
      <path
         d="M 401.71,696.52 L 401.71,693.92 L 403.96,693.92 L 403.96,692.75 L 401.71,692.75 L 401.71,685.56 C 401.71,684.67 401.86,683.89 402.92,683.89 C 403.5,683.89 403.72,684.02 403.96,684.13 L 403.96,682.87 C 403.66,682.77 403.09,682.72 402.51,682.72 C 400.89,682.72 400.46,683.98 400.46,685.22 L 400.46,692.75 L 398.81,692.75 L 398.81,693.92 L 400.46,693.92 L 400.46,696.13 L 401.71,696.52 z "
         transform="matrix(1.5256531,0,0,-1.5256531,-118.82853,1347.0848)"
         style="font-style:normal;font-variant:normal;font-weight:normal;font-stretch:normal;letter-spacing:normal;word-spacing:normal;text-anchor:start;fill:#005daa;fill-opacity:1;fill-rule:nonzero;stroke:#005daa;stroke-width:0;stroke-linecap:butt;stroke-linejoin:miter;stroke-miterlimit:10.43299961;stroke-dasharray:none;stroke-dashoffset:0;stroke-opacity:1"
         id="path6882" />
      <path
         d="M 409.08,684.74 L 409.12,684.74 L 411.59,693.92 L 412.84,693.92 L 409.23,680.82 C 408.82,679.32 408.47,678.06 406.72,678.06 C 406.38,678.06 406.18,678.1 405.88,678.2 L 405.95,679.47 C 406.16,679.32 406.55,679.23 406.83,679.23 C 407.43,679.23 407.76,679.82 407.95,680.51 L 408.52,682.61 L 405.27,693.92 L 406.61,693.92 L 409.08,684.74 z "
         transform="matrix(1.5256531,0,0,-1.5256531,-118.82853,1347.0848)"
         style="font-style:normal;font-variant:normal;font-weight:normal;font-stretch:normal;letter-spacing:normal;word-spacing:normal;text-anchor:start;fill:#005daa;fill-opacity:1;fill-rule:nonzero;stroke:#005daa;stroke-width:0;stroke-linecap:butt;stroke-linejoin:miter;stroke-miterlimit:10.43299961;stroke-dasharray:none;stroke-dashoffset:0;stroke-opacity:1"
         id="path6884" />
      <path
         d="M 229.28,679.15 L 230.62,679.15 L 230.62,669.62 C 230.62,667.35 231.05,665.14 233.75,665.14 C 236.59,665.14 236.89,667.59 236.89,669.62 L 236.89,679.15 L 238.23,679.15 L 238.23,669.6 C 238.23,666.61 237.25,663.88 233.75,663.88 C 230.25,663.88 229.28,666.35 229.28,669.6 L 229.28,679.15 z "
         transform="matrix(1.5256531,0,0,-1.5256531,-118.82853,1347.0848)"
         style="font-style:normal;font-variant:normal;font-weight:normal;font-stretch:normal;letter-spacing:normal;word-spacing:normal;text-anchor:start;fill:#005daa;fill-opacity:1;fill-rule:nonzero;stroke:#005daa;stroke-width:0;stroke-linecap:butt;stroke-linejoin:miter;stroke-miterlimit:10.43299961;stroke-dasharray:none;stroke-dashoffset:0;stroke-opacity:1"
         id="path6886" />
      <path
         d="M 241.43,671.66 L 241.43,672.09 L 241.42,672.51 L 241.41,672.94 L 241.39,673.37 L 241.37,674.22 L 241.35,674.65 L 241.34,675.08 L 242.51,675.08 C 242.55,674.58 242.57,674.26 242.6,673.45 L 242.64,673.45 C 242.9,673.93 243.61,675.23 245.45,675.23 C 248.5,675.23 248.5,672.18 248.5,671.44 L 248.5,664.03 L 247.25,664.03 L 247.25,671.48 C 247.25,672.24 247.25,674.06 245.19,674.06 C 243.66,674.06 242.68,672.61 242.68,670.9 L 242.68,664.03 L 241.43,664.03 L 241.43,671.66 z "
         transform="matrix(1.5256531,0,0,-1.5256531,-118.82853,1347.0848)"
         style="font-style:normal;font-variant:normal;font-weight:normal;font-stretch:normal;letter-spacing:normal;word-spacing:normal;text-anchor:start;fill:#005daa;fill-opacity:1;fill-rule:nonzero;stroke:#005daa;stroke-width:0;stroke-linecap:butt;stroke-linejoin:miter;stroke-miterlimit:10.43299961;stroke-dasharray:none;stroke-dashoffset:0;stroke-opacity:1"
         id="path6888" />
      <polygon
         points="251.42,677.53 252.93,677.53 252.93,679.48 251.42,679.48 251.42,677.53 "
         transform="matrix(1.5256531,0,0,-1.5256531,-118.82853,1347.0848)"
         style="font-style:normal;font-variant:normal;font-weight:normal;font-stretch:normal;letter-spacing:normal;word-spacing:normal;text-anchor:start;fill:#005daa;fill-opacity:1;fill-rule:nonzero;stroke:#005daa;stroke-width:0;stroke-linecap:butt;stroke-linejoin:miter;stroke-miterlimit:10.43299961;stroke-dasharray:none;stroke-dashoffset:0;stroke-opacity:1"
         id="polygon6890" />
      <polygon
         points="251.55,664.03 252.8,664.03 252.8,675.08 251.55,675.08 251.55,664.03 "
         transform="matrix(1.5256531,0,0,-1.5256531,-118.82853,1347.0848)"
         style="font-style:normal;font-variant:normal;font-weight:normal;font-stretch:normal;letter-spacing:normal;word-spacing:normal;text-anchor:start;fill:#005daa;fill-opacity:1;fill-rule:nonzero;stroke:#005daa;stroke-width:0;stroke-linecap:butt;stroke-linejoin:miter;stroke-miterlimit:10.43299961;stroke-dasharray:none;stroke-dashoffset:0;stroke-opacity:1"
         id="polygon6892" />
      <polygon
         points="254.62,675.08 255.96,675.08 258.57,665.46 258.62,665.46 261.32,675.08 262.58,675.08 259.36,664.03 257.84,664.03 254.62,675.08 "
         transform="matrix(1.5256531,0,0,-1.5256531,-118.82853,1347.0848)"
         style="font-style:normal;font-variant:normal;font-weight:normal;font-stretch:normal;letter-spacing:normal;word-spacing:normal;text-anchor:start;fill:#005daa;fill-opacity:1;fill-rule:nonzero;stroke:#005daa;stroke-width:0;stroke-linecap:butt;stroke-linejoin:miter;stroke-miterlimit:10.43299961;stroke-dasharray:none;stroke-dashoffset:0;stroke-opacity:1"
         id="polygon6894" />
      <path
         d="M 312,10.96875 C 309.67501,10.96875 307.125,12.862533 307.125,18.0625 C 307.125,19.449991 307.13128,25.156249 312.53125,25.15625 C 314.18124,25.15625 315.10001,24.724997 315.75,24.375 L 315.65625,22.5625 C 314.88125,23.262496 313.58749,23.687501 312.6875,23.6875 L 312.625,23.6875 L 312.5625,23.6875 L 312.4375,23.6875 L 312.34375,23.6875 L 312.21875,23.65625 L 312.09375,23.65625 L 311.96875,23.65625 L 311.8125,23.625 L 311.6875,23.59375 L 311.5,23.53125 L 311.34375,23.46875 L 311.1875,23.40625 L 311.03125,23.34375 L 310.84375,23.28125 L 310.6875,23.15625 L 310.5,23.0625 L 310.34375,22.9375 L 310.1875,22.78125 L 310.03125,22.625 L 309.9375,22.53125 L 309.875,22.4375 L 309.78125,22.34375 L 309.71875,22.25 L 309.65625,22.15625 L 309.5625,22.03125 L 309.5,21.90625 L 309.4375,21.78125 L 309.375,21.65625 L 309.3125,21.53125 L 309.25,21.40625 L 309.21875,21.25 L 309.15625,21.09375 L 309.09375,20.9375 L 309.0625,20.78125 L 309,20.625 L 308.96875,20.4375 L 308.9375,20.28125 L 308.90625,20.09375 L 308.875,19.875 L 308.84375,19.6875 L 308.84375,19.46875 L 308.8125,19.25 L 308.8125,19.03125 L 308.8125,18.8125 L 308.8125,18.5625 L 316.4375,18.5625 C 316.4375,15.212521 315.99999,10.96875 312,10.96875 z M 311.9375,12.4375 L 312.0625,12.4375 L 312.1875,12.4375 L 312.3125,12.46875 L 312.4375,12.46875 L 312.5625,12.5 L 312.6875,12.53125 L 312.78125,12.59375 L 312.90625,12.65625 L 313.03125,12.71875 L 313.15625,12.78125 L 313.28125,12.84375 L 313.375,12.9375 L 313.5,13.03125 L 313.625,13.15625 L 313.71875,13.28125 L 313.8125,13.40625 L 313.90625,13.53125 L 314,13.6875 L 314.09375,13.84375 L 314.1875,14.03125 L 314.28125,14.21875 L 314.34375,14.40625 L 314.4375,14.625 L 314.5,14.84375 L 314.5625,15.0625 L 314.59375,15.3125 L 314.625,15.59375 L 314.6875,15.84375 L 314.6875,16 L 314.71875,16.15625 L 314.71875,16.3125 L 314.71875,16.46875 L 314.75,16.625 L 314.75,16.78125 L 314.75,16.9375 L 314.75,17.09375 L 308.8125,17.09375 C 308.8125,15.318761 309.80001,12.4375 311.9375,12.4375 z "
         transform="matrix(1.2205303,0,0,1.2205303,-91.366596,303.53125)"
         style="font-style:normal;font-variant:normal;font-weight:normal;font-stretch:normal;letter-spacing:normal;word-spacing:normal;text-anchor:start;fill:#005daa;fill-opacity:1;fill-rule:nonzero;stroke:#005daa;stroke-width:0;stroke-linecap:butt;stroke-linejoin:miter;stroke-miterlimit:10.43299961;stroke-dasharray:none;stroke-dashoffset:0;stroke-opacity:1"
         id="path6896" />
      <path
         d="M 273.5,671.66 L 273.49,672.09 L 273.49,672.51 L 273.47,672.94 L 273.46,673.37 L 273.43,674.22 L 273.42,674.65 L 273.41,675.08 L 274.57,675.08 C 274.6,674.43 274.64,673.78 274.66,673.32 L 274.71,673.32 C 275.51,674.91 276.44,675.23 277.65,675.23 L 277.65,673.89 C 275.66,673.89 274.75,673.02 274.75,670.98 L 274.75,664.03 L 273.5,664.03 L 273.5,671.66 z "
         transform="matrix(1.5256531,0,0,-1.5256531,-118.82853,1347.0848)"
         style="font-style:normal;font-variant:normal;font-weight:normal;font-stretch:normal;letter-spacing:normal;word-spacing:normal;text-anchor:start;fill:#005daa;fill-opacity:1;fill-rule:nonzero;stroke:#005daa;stroke-width:0;stroke-linecap:butt;stroke-linejoin:miter;stroke-miterlimit:10.43299961;stroke-dasharray:none;stroke-dashoffset:0;stroke-opacity:1"
         id="path6900" />
      <path
         d="M 284.07,673.61 L 283.95,673.65 L 283.84,673.7 L 283.72,673.74 L 283.61,673.78 L 283.5,673.82 L 283.39,673.86 L 283.27,673.89 L 283.16,673.92 L 283.05,673.95 L 282.93,673.98 L 282.81,674.01 L 282.69,674.03 L 282.57,674.04 L 282.45,674.05 L 282.38,674.06 L 282.32,674.06 L 282.25,674.06 L 282.19,674.06 C 280.89,674.06 280.31,673.09 280.31,672.31 C 280.31,671.29 280.7,671.07 282.19,670.25 C 283.7,669.43 284.87,668.86 284.87,667.09 C 284.87,665.09 283.46,663.88 281.61,663.88 C 280.24,663.88 279.46,664.16 278.81,664.4 L 278.99,665.81 C 279.36,665.55 280.48,665.05 281.5,665.05 C 282.68,665.05 283.53,665.96 283.53,666.96 C 283.53,668.02 282.86,668.45 281.56,669.1 C 279.7,670.03 278.96,670.62 278.96,672.18 C 278.96,674.26 280.74,675.23 282.21,675.23 C 282.95,675.23 283.83,675.04 284.24,674.91 L 284.07,673.61 z "
         transform="matrix(1.5256531,0,0,-1.5256531,-118.82853,1347.0848)"
         style="font-style:normal;font-variant:normal;font-weight:normal;font-stretch:normal;letter-spacing:normal;word-spacing:normal;text-anchor:start;fill:#005daa;fill-opacity:1;fill-rule:nonzero;stroke:#005daa;stroke-width:0;stroke-linecap:butt;stroke-linejoin:miter;stroke-miterlimit:10.43299961;stroke-dasharray:none;stroke-dashoffset:0;stroke-opacity:1"
         id="path6902" />
      <polygon
         points="287.09,677.53 288.61,677.53 288.61,679.48 287.09,679.48 287.09,677.53 "
         transform="matrix(1.5256531,0,0,-1.5256531,-118.82853,1347.0848)"
         style="font-style:normal;font-variant:normal;font-weight:normal;font-stretch:normal;letter-spacing:normal;word-spacing:normal;text-anchor:start;fill:#005daa;fill-opacity:1;fill-rule:nonzero;stroke:#005daa;stroke-width:0;stroke-linecap:butt;stroke-linejoin:miter;stroke-miterlimit:10.43299961;stroke-dasharray:none;stroke-dashoffset:0;stroke-opacity:1"
         id="polygon6904" />
      <polygon
         points="287.23,664.03 288.48,664.03 288.48,675.08 287.23,675.08 287.23,664.03 "
         transform="matrix(1.5256531,0,0,-1.5256531,-118.82853,1347.0848)"
         style="font-style:normal;font-variant:normal;font-weight:normal;font-stretch:normal;letter-spacing:normal;word-spacing:normal;text-anchor:start;fill:#005daa;fill-opacity:1;fill-rule:nonzero;stroke:#005daa;stroke-width:0;stroke-linecap:butt;stroke-linejoin:miter;stroke-miterlimit:10.43299961;stroke-dasharray:none;stroke-dashoffset:0;stroke-opacity:1"
         id="polygon6906" />
      <path
         d="M 293.34,677.68 L 293.34,675.08 L 295.59,675.08 L 295.59,673.91 L 293.34,673.91 L 293.34,666.72 C 293.34,665.83 293.5,665.05 294.55,665.05 C 295.14,665.05 295.36,665.18 295.59,665.29 L 295.59,664.03 C 295.29,663.93 294.73,663.88 294.14,663.88 C 292.52,663.88 292.09,665.14 292.09,666.37 L 292.09,673.91 L 290.45,673.91 L 290.45,675.08 L 292.09,675.08 L 292.09,677.29 L 293.34,677.68 z "
         transform="matrix(1.5256531,0,0,-1.5256531,-118.82853,1347.0848)"
         style="font-style:normal;font-variant:normal;font-weight:normal;font-stretch:normal;letter-spacing:normal;word-spacing:normal;text-anchor:start;fill:#005daa;fill-opacity:1;fill-rule:nonzero;stroke:#005daa;stroke-width:0;stroke-linecap:butt;stroke-linejoin:miter;stroke-miterlimit:10.43299961;stroke-dasharray:none;stroke-dashoffset:0;stroke-opacity:1"
         id="path6908" />
      <path
         d="M 353.59375,10.96875 C 351.26876,10.96875 348.68749,12.862533 348.6875,18.0625 C 348.6875,19.449991 348.69378,25.156249 354.09375,25.15625 C 355.74374,25.15625 356.6625,24.724997 357.3125,24.375 L 357.25,22.5625 C 356.46251,23.262496 355.14998,23.687501 354.25,23.6875 L 354.1875,23.6875 L 354.125,23.6875 L 354.03125,23.6875 L 353.90625,23.6875 L 353.8125,23.65625 L 353.6875,23.65625 L 353.53125,23.65625 L 353.375,23.625 L 353.25,23.59375 L 353.09375,23.53125 L 352.9375,23.46875 L 352.75,23.40625 L 352.59375,23.34375 L 352.4375,23.28125 L 352.25,23.15625 L 352.09375,23.0625 L 351.90625,22.9375 L 351.75,22.78125 L 351.59375,22.625 L 351.5,22.53125 L 351.4375,22.4375 L 351.375,22.34375 L 351.28125,22.25 L 351.21875,22.15625 L 351.15625,22.03125 L 351.0625,21.90625 L 351,21.78125 L 350.9375,21.65625 L 350.875,21.53125 L 350.84375,21.40625 L 350.78125,21.25 L 350.71875,21.09375 L 350.6875,20.9375 L 350.625,20.78125 L 350.59375,20.625 L 350.5625,20.4375 L 350.5,20.28125 L 350.46875,20.09375 L 350.4375,19.875 L 350.4375,19.6875 L 350.40625,19.46875 L 350.375,19.25 L 350.375,19.03125 L 350.375,18.8125 L 350.375,18.5625 L 358,18.5625 C 358,15.212521 357.59373,10.96875 353.59375,10.96875 z M 353.5,12.4375 L 353.625,12.4375 L 353.75,12.4375 L 353.875,12.46875 L 354,12.46875 L 354.125,12.5 L 354.25,12.53125 L 354.375,12.59375 L 354.46875,12.65625 L 354.59375,12.71875 L 354.71875,12.78125 L 354.84375,12.84375 L 354.9375,12.9375 L 355.0625,13.03125 L 355.1875,13.15625 L 355.28125,13.28125 L 355.375,13.40625 L 355.5,13.53125 L 355.59375,13.6875 L 355.6875,13.84375 L 355.75,14.03125 L 355.84375,14.21875 L 355.9375,14.40625 L 356,14.625 L 356.0625,14.84375 L 356.125,15.0625 L 356.15625,15.3125 L 356.21875,15.59375 L 356.25,15.84375 L 356.25,16 L 356.28125,16.15625 L 356.28125,16.3125 L 356.3125,16.46875 L 356.3125,16.625 L 356.3125,16.78125 L 356.3125,16.9375 L 356.3125,17.09375 L 350.375,17.09375 C 350.375,15.318761 351.37502,12.4375 353.5,12.4375 z "
         transform="matrix(1.2205303,0,0,1.2205303,-91.366596,303.53125)"
         style="font-style:normal;font-variant:normal;font-weight:normal;font-stretch:normal;letter-spacing:normal;word-spacing:normal;text-anchor:start;fill:#005daa;fill-opacity:1;fill-rule:nonzero;stroke:#005daa;stroke-width:0;stroke-linecap:butt;stroke-linejoin:miter;stroke-miterlimit:10.43299961;stroke-dasharray:none;stroke-dashoffset:0;stroke-opacity:1"
         id="path6910" />
      <polygon
         points="302.84,679.8 300.76,676.73 299.68,676.73 301.32,679.8 302.84,679.8 "
         transform="matrix(1.5256531,0,0,-1.5256531,-118.82853,1347.0848)"
         style="font-style:normal;font-variant:normal;font-weight:normal;font-stretch:normal;letter-spacing:normal;word-spacing:normal;text-anchor:start;fill:#005daa;fill-opacity:1;fill-rule:nonzero;stroke:#005daa;stroke-width:0;stroke-linecap:butt;stroke-linejoin:miter;stroke-miterlimit:10.43299961;stroke-dasharray:none;stroke-dashoffset:0;stroke-opacity:1"
         id="polygon6914" />
      <polygon
         points="306.64,679.15 310.71,679.15 310.71,667.1 315.68,667.1 315.68,664.03 306.64,664.03 306.64,679.15 "
         transform="matrix(1.5256531,0,0,-1.5256531,-118.82853,1347.0848)"
         style="font-style:normal;font-variant:normal;font-weight:normal;font-stretch:normal;letter-spacing:normal;word-spacing:normal;text-anchor:start;fill:#005daa;fill-opacity:1;fill-rule:nonzero;stroke:#005daa;stroke-width:0;stroke-linecap:butt;stroke-linejoin:miter;stroke-miterlimit:10.43299961;stroke-dasharray:none;stroke-dashoffset:0;stroke-opacity:1"
         id="polygon6916" />
      <path
         d="M 380.375,10.53125 C 378.01252,10.53125 376.25626,11.031253 375.09375,11.46875 L 375.25,14.9375 C 376.27499,14.287504 377.8,13.625 379.3125,13.625 C 381.23749,13.625 381.96876,14.643756 381.96875,15.53125 L 381.96875,15.96875 L 380.71875,15.96875 C 375.81878,15.96875 373.46874,17.64377 373.46875,20.78125 C 373.46875,23.493733 375.26252,25.28125 377.75,25.28125 C 379.44999,25.28125 380.56877,24.593741 381.96875,23.03125 C 381.96875,23.681246 382.075,24.318755 382.125,24.96875 L 386.4375,24.96875 L 386.4375,24.8125 L 386.4375,24.65625 L 386.40625,24.46875 L 386.375,24.28125 L 386.375,24.09375 L 386.375,23.90625 L 386.34375,23.71875 L 386.34375,23.53125 L 386.3125,23.3125 L 386.3125,23.125 L 386.3125,22.90625 L 386.3125,22.71875 L 386.28125,22.28125 L 386.28125,21.84375 L 386.28125,15.75 C 386.28125,12.850019 385.31245,10.53125 380.375,10.53125 z M 381.40625,18.15625 L 381.96875,18.15625 L 381.96875,18.59375 C 381.96875,19.931241 381.71875,22.21875 379.46875,22.21875 C 378.46876,22.21875 377.81251,21.718743 377.8125,20.46875 C 377.8125,18.818761 379.24378,18.156249 381.40625,18.15625 z "
         transform="matrix(1.2205303,0,0,1.2205303,-91.366596,303.53125)"
         style="font-style:normal;font-variant:normal;font-weight:normal;font-stretch:normal;letter-spacing:normal;word-spacing:normal;text-anchor:start;fill:#005daa;fill-opacity:1;fill-rule:nonzero;stroke:#005daa;stroke-width:0;stroke-linecap:butt;stroke-linejoin:miter;stroke-miterlimit:10.43299961;stroke-dasharray:none;stroke-dashoffset:0;stroke-opacity:1"
         id="path6918" />
      <path
         d="M 339.44,665.9 L 339.44,665.74 L 339.44,665.59 L 339.45,665.44 L 339.45,665.29 L 339.46,665.15 L 339.47,665.01 L 339.47,664.95 L 339.47,664.88 L 339.48,664.82 L 339.48,664.76 L 339.49,664.7 L 339.49,664.64 L 339.5,664.59 L 339.5,664.53 L 339.51,664.48 L 339.51,664.43 L 339.52,664.38 L 339.53,664.33 L 339.53,664.29 L 339.54,664.24 L 339.54,664.2 L 339.55,664.16 L 339.56,664.13 L 339.56,664.09 L 339.57,664.06 L 339.57,664.03 L 335.92,664.03 C 335.86,664.49 335.83,665.29 335.83,665.92 L 335.79,665.92 C 335.57,665.31 334.82,663.77 332.61,663.77 C 330.69,663.77 329.2,664.92 329.2,667.41 L 329.2,675.32 L 333.09,675.32 L 333.09,668.54 C 333.09,667.46 333.41,666.93 334.19,666.93 C 335.31,666.93 335.55,667.95 335.55,668.8 L 335.55,675.32 L 339.44,675.32 L 339.44,665.9 z "
         transform="matrix(1.5256531,0,0,-1.5256531,-118.82853,1347.0848)"
         style="font-style:normal;font-variant:normal;font-weight:normal;font-stretch:normal;letter-spacing:normal;word-spacing:normal;text-anchor:start;fill:#005daa;fill-opacity:1;fill-rule:nonzero;stroke:#005daa;stroke-width:0;stroke-linecap:butt;stroke-linejoin:miter;stroke-miterlimit:10.43299961;stroke-dasharray:none;stroke-dashoffset:0;stroke-opacity:1"
         id="path6922" />
      <path
         d="M 341.61,672.05 L 341.6,672.2 L 341.6,672.34 L 341.6,672.49 L 341.6,672.63 L 341.6,672.77 L 341.6,672.9 L 341.6,673.03 L 341.59,673.16 L 341.59,673.29 L 341.59,673.41 L 341.58,673.53 L 341.58,673.65 L 341.58,673.77 L 341.57,673.88 L 341.57,673.99 L 341.56,674.09 L 341.56,674.19 L 341.55,674.29 L 341.55,674.39 L 341.54,674.48 L 341.54,674.57 L 341.53,674.65 L 341.53,674.74 L 341.52,674.82 L 341.52,674.89 L 341.51,674.96 L 341.51,675.03 L 341.5,675.1 L 341.49,675.16 L 341.49,675.22 L 341.48,675.27 L 341.48,675.32 L 345.13,675.32 C 345.2,674.86 345.22,674.06 345.22,673.43 L 345.26,673.43 C 345.59,674.32 346.28,675.58 348.14,675.58 C 348.42,675.58 348.55,675.56 348.79,675.51 L 348.79,672.11 C 348.61,672.18 348.07,672.24 347.61,672.24 C 346.36,672.24 345.5,671.14 345.5,669.65 L 345.5,664.03 L 341.61,664.03 L 341.61,672.05 z "
         transform="matrix(1.5256531,0,0,-1.5256531,-118.82853,1347.0848)"
         style="font-style:normal;font-variant:normal;font-weight:normal;font-stretch:normal;letter-spacing:normal;word-spacing:normal;text-anchor:start;fill:#005daa;fill-opacity:1;fill-rule:nonzero;stroke:#005daa;stroke-width:0;stroke-linecap:butt;stroke-linejoin:miter;stroke-miterlimit:10.43299961;stroke-dasharray:none;stroke-dashoffset:0;stroke-opacity:1"
         id="path6924" />
      <path
         d="M 421.21875,10.53125 C 416.98128,10.53125 414.68749,13.968775 414.6875,17.84375 C 414.6875,21.468727 416.33129,25.30625 422.03125,25.28125 C 424.00624,25.25625 425.7875,24.843747 426.9375,24.46875 L 426.84375,21.09375 C 425.65626,21.606247 424.04375,22.21875 422.71875,22.21875 L 422.5625,22.21875 L 422.375,22.1875 L 422.21875,22.1875 L 422.0625,22.15625 L 421.90625,22.15625 L 421.75,22.125 L 421.59375,22.09375 L 421.4375,22.0625 L 421.28125,22.03125 L 421.125,21.96875 L 421,21.9375 L 420.875,21.875 L 420.71875,21.8125 L 420.59375,21.71875 L 420.46875,21.65625 L 420.34375,21.59375 L 420.21875,21.5 L 420.125,21.40625 L 420,21.28125 L 419.90625,21.1875 L 419.8125,21.0625 L 419.71875,20.9375 L 419.65625,20.8125 L 419.5625,20.65625 L 419.5,20.53125 L 419.4375,20.375 L 419.375,20.21875 L 419.34375,20.03125 L 419.28125,19.84375 L 419.25,19.65625 L 419.25,19.46875 L 419.21875,19.25 L 427.6875,19.25 L 427.6875,17.875 C 427.6875,14.037525 425.63123,10.53125 421.21875,10.53125 z M 421.3125,13.5 C 422.77499,13.5 423.28124,14.393762 423.28125,16.28125 L 423.28125,16.71875 L 419.125,16.71875 C 419.125,14.768762 419.92502,13.5 421.3125,13.5 z "
         transform="matrix(1.2205303,0,0,1.2205303,-91.366596,303.53125)"
         style="font-style:normal;font-variant:normal;font-weight:normal;font-stretch:normal;letter-spacing:normal;word-spacing:normal;text-anchor:start;fill:#005daa;fill-opacity:1;fill-rule:nonzero;stroke:#005daa;stroke-width:0;stroke-linecap:butt;stroke-linejoin:miter;stroke-miterlimit:10.43299961;stroke-dasharray:none;stroke-dashoffset:0;stroke-opacity:1"
         id="path6926" />
      <path
         d="M 362.04,673.02 L 362.04,673.18 L 362.04,673.34 L 362.03,673.66 L 362.03,673.83 L 362.02,673.98 L 362.01,674.14 L 362,674.29 L 361.99,674.44 L 361.98,674.59 L 361.97,674.73 L 361.96,674.86 L 361.96,674.93 L 361.95,674.99 L 361.94,675.05 L 361.94,675.11 L 361.93,675.16 L 361.93,675.22 L 361.92,675.27 L 361.91,675.32 L 365.57,675.32 C 365.63,674.86 365.65,674.06 365.65,673.43 L 365.7,673.43 C 365.91,674.04 366.67,675.58 368.88,675.58 C 370.8,675.58 372.29,674.43 372.29,671.94 L 372.29,664.03 L 368.4,664.03 L 368.4,670.81 C 368.4,671.9 368.07,672.41 367.34,672.41 C 366.37,672.41 365.93,671.4 365.93,670.23 L 365.93,664.03 L 362.04,664.03 L 362.04,673.02 z "
         transform="matrix(1.5256531,0,0,-1.5256531,-118.82853,1347.0848)"
         style="font-style:normal;font-variant:normal;font-weight:normal;font-stretch:normal;letter-spacing:normal;word-spacing:normal;text-anchor:start;fill:#005daa;fill-opacity:1;fill-rule:nonzero;stroke:#005daa;stroke-width:0;stroke-linecap:butt;stroke-linejoin:miter;stroke-miterlimit:10.43299961;stroke-dasharray:none;stroke-dashoffset:0;stroke-opacity:1"
         id="path6930" />
      <path
         d="M 373.65,675.32 L 375.58,675.32 L 375.58,677.7 L 379.47,678.91 L 379.47,675.32 L 381.65,675.32 L 381.65,672.68 L 379.47,672.68 L 379.47,667.87 C 379.47,666.91 380.05,666.5 380.75,666.5 C 381.13,666.5 381.48,666.57 381.65,666.68 L 381.76,664.03 C 381.27,663.93 380.31,663.77 379.19,663.77 C 377.05,663.77 375.58,664.99 375.58,667.09 L 375.58,672.68 L 373.65,672.68 L 373.65,675.32 z "
         transform="matrix(1.5256531,0,0,-1.5256531,-118.82853,1347.0848)"
         style="font-style:normal;font-variant:normal;font-weight:normal;font-stretch:normal;letter-spacing:normal;word-spacing:normal;text-anchor:start;fill:#005daa;fill-opacity:1;fill-rule:nonzero;stroke:#005daa;stroke-width:0;stroke-linecap:butt;stroke-linejoin:miter;stroke-miterlimit:10.43299961;stroke-dasharray:none;stroke-dashoffset:0;stroke-opacity:1"
         id="path6932" />
      <polygon
         points="383.7,677.03 387.59,677.03 387.59,680.28 383.7,680.28 383.7,677.03 "
         transform="matrix(1.5256531,0,0,-1.5256531,-118.82853,1347.0848)"
         style="font-style:normal;font-variant:normal;font-weight:normal;font-stretch:normal;letter-spacing:normal;word-spacing:normal;text-anchor:start;fill:#005daa;fill-opacity:1;fill-rule:nonzero;stroke:#005daa;stroke-width:0;stroke-linecap:butt;stroke-linejoin:miter;stroke-miterlimit:10.43299961;stroke-dasharray:none;stroke-dashoffset:0;stroke-opacity:1"
         id="polygon6934" />
      <polygon
         points="383.7,664.03 387.59,664.03 387.59,675.32 383.7,675.32 383.7,664.03 "
         transform="matrix(1.5256531,0,0,-1.5256531,-118.82853,1347.0848)"
         style="font-style:normal;font-variant:normal;font-weight:normal;font-stretch:normal;letter-spacing:normal;word-spacing:normal;text-anchor:start;fill:#005daa;fill-opacity:1;fill-rule:nonzero;stroke:#005daa;stroke-width:0;stroke-linecap:butt;stroke-linejoin:miter;stroke-miterlimit:10.43299961;stroke-dasharray:none;stroke-dashoffset:0;stroke-opacity:1"
         id="polygon6936" />
      <path
         d="M 471.09375,10.53125 C 466.85628,10.53125 464.5625,13.968775 464.5625,17.84375 C 464.5625,21.468727 466.20629,25.30625 471.90625,25.28125 C 473.88124,25.25625 475.68127,24.843747 476.84375,24.46875 L 476.71875,21.09375 C 475.53126,21.606247 473.91873,22.21875 472.59375,22.21875 L 472.4375,22.21875 L 472.28125,22.1875 L 472.09375,22.1875 L 471.9375,22.15625 L 471.78125,22.15625 L 471.625,22.125 L 471.46875,22.09375 L 471.3125,22.0625 L 471.15625,22.03125 L 471.03125,21.96875 L 470.875,21.9375 L 470.75,21.875 L 470.59375,21.8125 L 470.46875,21.71875 L 470.34375,21.65625 L 470.21875,21.59375 L 470.09375,21.5 L 470,21.40625 L 469.90625,21.28125 L 469.78125,21.1875 L 469.6875,21.0625 L 469.59375,20.9375 L 469.53125,20.8125 L 469.4375,20.65625 L 469.375,20.53125 L 469.3125,20.375 L 469.25,20.21875 L 469.21875,20.03125 L 469.15625,19.84375 L 469.125,19.65625 L 469.09375,19.46875 L 469.09375,19.25 L 477.59375,19.25 L 477.59375,17.875 C 477.59375,14.037525 475.50623,10.53125 471.09375,10.53125 z M 471.1875,13.5 C 472.64999,13.5 473.15626,14.393762 473.15625,16.28125 L 473.15625,16.71875 L 469,16.71875 C 469,14.768762 469.80002,13.5 471.1875,13.5 z "
         transform="matrix(1.2205303,0,0,1.2205303,-91.366596,303.53125)"
         style="font-style:normal;font-variant:normal;font-weight:normal;font-stretch:normal;letter-spacing:normal;word-spacing:normal;text-anchor:start;fill:#005daa;fill-opacity:1;fill-rule:nonzero;stroke:#005daa;stroke-width:0;stroke-linecap:butt;stroke-linejoin:miter;stroke-miterlimit:10.43299961;stroke-dasharray:none;stroke-dashoffset:0;stroke-opacity:1"
         id="path6938" />
      <path
         d="M 401.95,673.02 L 401.95,673.18 L 401.95,673.34 L 401.94,673.66 L 401.94,673.83 L 401.93,673.98 L 401.92,674.14 L 401.91,674.29 L 401.9,674.44 L 401.89,674.59 L 401.88,674.73 L 401.87,674.86 L 401.86,674.93 L 401.86,674.99 L 401.85,675.05 L 401.84,675.11 L 401.84,675.16 L 401.83,675.22 L 401.83,675.27 L 401.82,675.32 L 405.48,675.32 C 405.54,674.86 405.56,674.06 405.56,673.43 L 405.61,673.43 C 405.82,674.04 406.58,675.58 408.79,675.58 C 410.71,675.58 412.2,674.43 412.2,671.94 L 412.2,664.03 L 408.31,664.03 L 408.31,670.81 C 408.31,671.9 407.99,672.41 407.25,672.41 C 406.28,672.41 405.84,671.4 405.84,670.23 L 405.84,664.03 L 401.95,664.03 L 401.95,673.02 z "
         transform="matrix(1.5256531,0,0,-1.5256531,-118.82853,1347.0848)"
         style="font-style:normal;font-variant:normal;font-weight:normal;font-stretch:normal;letter-spacing:normal;word-spacing:normal;text-anchor:start;fill:#005daa;fill-opacity:1;fill-rule:nonzero;stroke:#005daa;stroke-width:0;stroke-linecap:butt;stroke-linejoin:miter;stroke-miterlimit:10.43299961;stroke-dasharray:none;stroke-dashoffset:0;stroke-opacity:1"
         id="path6942" />
      <path
         d="M 414.36,673.02 L 414.36,673.18 L 414.36,673.34 L 414.35,673.66 L 414.35,673.83 L 414.34,673.98 L 414.33,674.14 L 414.32,674.29 L 414.31,674.44 L 414.3,674.59 L 414.29,674.73 L 414.28,674.86 L 414.28,674.93 L 414.27,674.99 L 414.26,675.05 L 414.26,675.11 L 414.25,675.16 L 414.25,675.22 L 414.24,675.27 L 414.23,675.32 L 417.89,675.32 C 417.95,674.86 417.98,674.06 417.98,673.43 L 418.02,673.43 C 418.23,674.04 418.99,675.58 421.2,675.58 C 423.12,675.58 424.61,674.43 424.61,671.94 L 424.61,664.03 L 420.72,664.03 L 420.72,670.81 C 420.72,671.9 420.39,672.41 419.66,672.41 C 418.69,672.41 418.26,671.4 418.26,670.23 L 418.26,664.03 L 414.36,664.03 L 414.36,673.02 z "
         transform="matrix(1.5256531,0,0,-1.5256531,-118.82853,1347.0848)"
         style="font-style:normal;font-variant:normal;font-weight:normal;font-stretch:normal;letter-spacing:normal;word-spacing:normal;text-anchor:start;fill:#005daa;fill-opacity:1;fill-rule:nonzero;stroke:#005daa;stroke-width:0;stroke-linecap:butt;stroke-linejoin:miter;stroke-miterlimit:10.43299961;stroke-dasharray:none;stroke-dashoffset:0;stroke-opacity:1"
         id="path6944" />
      <path
         d="M 517.15625,10.53125 C 512.90628,10.53125 510.59374,13.968775 510.59375,17.84375 C 510.59375,21.468727 512.25627,25.30625 517.96875,25.28125 C 519.93124,25.25625 521.71248,24.843747 522.875,24.46875 L 522.78125,21.09375 C 521.59376,21.606247 519.98127,22.21875 518.65625,22.21875 L 518.5,22.21875 L 518.34375,22.1875 L 518.15625,22.1875 L 518,22.15625 L 517.84375,22.15625 L 517.6875,22.125 L 517.53125,22.09375 L 517.375,22.0625 L 517.21875,22.03125 L 517.09375,21.96875 L 516.9375,21.9375 L 516.78125,21.875 L 516.65625,21.8125 L 516.53125,21.71875 L 516.40625,21.65625 L 516.28125,21.59375 L 516.15625,21.5 L 516.0625,21.40625 L 515.9375,21.28125 L 515.84375,21.1875 L 515.75,21.0625 L 515.65625,20.9375 L 515.59375,20.8125 L 515.5,20.65625 L 515.4375,20.53125 L 515.375,20.375 L 515.3125,20.21875 L 515.28125,20.03125 L 515.21875,19.84375 L 515.1875,19.65625 L 515.15625,19.46875 L 515.15625,19.25 L 523.625,19.25 L 523.625,17.875 C 523.625,14.037525 521.55621,10.53125 517.15625,10.53125 z M 517.21875,13.5 C 518.68124,13.5 519.21874,14.393762 519.21875,16.28125 L 519.21875,16.71875 L 515.03125,16.71875 C 515.03125,14.768762 515.84373,13.5 517.21875,13.5 z "
         transform="matrix(1.2205303,0,0,1.2205303,-91.366596,303.53125)"
         style="font-style:normal;font-variant:normal;font-weight:normal;font-stretch:normal;letter-spacing:normal;word-spacing:normal;text-anchor:start;fill:#005daa;fill-opacity:1;fill-rule:nonzero;stroke:#005daa;stroke-width:0;stroke-linecap:butt;stroke-linejoin:miter;stroke-miterlimit:10.43299961;stroke-dasharray:none;stroke-dashoffset:0;stroke-opacity:1"
         id="path6946" />
      <path
         d="M 194.45,669.2 L 193.98,669.2 L 193.52,669.17 L 193.05,669.14 L 192.59,669.08 L 192.14,669.02 L 191.69,668.94 L 191.24,668.85 L 190.8,668.74 L 190.37,668.62 L 189.94,668.49 L 189.52,668.34 L 189.1,668.18 L 188.69,668.01 L 188.28,667.83 L 187.88,667.64 L 187.49,667.43 L 187.11,667.21 L 186.73,666.98 L 186.36,666.74 L 186,666.49 L 185.64,666.23 L 185.3,665.96 L 184.96,665.68 L 184.63,665.39 L 184.31,665.09 L 184,664.78 L 183.7,664.46 L 183.41,664.13 L 183.13,663.79 L 182.85,663.45 L 182.59,663.09 L 182.34,662.73 C 185.19,659.25 189.1,656.28 194.45,654.58 C 199.82,656.28 203.72,659.25 206.57,662.73 C 203.95,666.63 199.5,669.2 194.45,669.2 z "
         transform="matrix(1.5256531,0,0,-1.5256531,-118.82853,1347.0848)"
         style="font-style:normal;font-variant:normal;font-weight:normal;font-stretch:normal;letter-spacing:normal;word-spacing:normal;text-anchor:start;fill:#ffc424;fill-opacity:1;fill-rule:nonzero;stroke:#ffc424;stroke-width:0;stroke-linecap:butt;stroke-linejoin:miter;stroke-miterlimit:10.43299961;stroke-dasharray:none;stroke-dashoffset:0;stroke-opacity:1"
         id="path6950" />
      <path
         d="M 194.45,700.02 L 193.17,700.01 L 191.9,699.98 L 190.63,699.94 L 189.36,699.87 L 188.11,699.8 L 186.86,699.7 L 185.61,699.59 L 184.38,699.47 L 183.15,699.33 L 181.92,699.18 L 180.7,699.01 L 179.49,698.83 L 177.09,698.44 L 174.72,698 L 174.72,686.89 C 174.72,683.52 175.18,672.47 181.43,663.91 C 184.18,667.74 188.56,670.32 193.55,670.6 C 194.17,671.76 194.82,673.07 195.47,674.49 C 193.56,674.95 193.56,676.9 194.69,678.13 C 195.25,678.74 196.28,679.24 197.56,679.6 C 197.79,680.24 198.01,680.89 198.21,681.54 C 197.13,681.21 196.16,680.84 195.43,680.47 C 193.55,679.52 194.41,677.5 192.01,677.72 C 189.61,677.94 189.53,680.13 190.75,681.45 C 191.89,682.69 194.9,683.48 198.21,683.57 C 197.72,684.27 197.93,685.31 198.6,686.05 C 198.84,686.31 199.19,686.54 199.6,686.75 C 199.64,686.95 199.67,687.14 199.71,687.33 C 199.29,687.17 198.91,687.01 198.59,686.85 C 196.98,686.03 197.72,684.3 195.66,684.48 C 193.6,684.67 193.52,686.55 194.57,687.69 C 195.44,688.63 197.59,689.27 200.05,689.47 C 200.24,690.89 200.35,692.31 200.34,693.7 L 200.91,693.87 C 201.17,693.03 201.18,691.49 200.98,689.51 C 202.9,689.57 204.94,689.35 206.7,688.79 C 204.92,688.74 202.62,688.28 200.75,687.69 C 200.73,687.53 200.71,687.37 200.68,687.2 C 203.31,688.06 207.51,688.18 210.73,687.15 C 208.16,687.08 204.49,686.15 202.63,685.21 C 201.72,684.75 201.56,684 201.22,683.47 C 202.48,683.33 203.72,683.1 204.86,682.73 C 203.29,682.69 201.38,682.38 199.6,681.93 C 199.44,681.28 199.27,680.62 199.09,679.95 C 202.04,680.48 205.79,680.39 208.8,679.42 C 205.81,679.34 201.55,678.25 199.38,677.15 C 198.09,676.5 198.09,675.34 197.44,674.76 C 196.93,673.33 196.35,671.92 195.75,670.57 C 200.57,670.18 204.8,667.64 207.48,663.91 C 213.73,672.47 214.19,683.52 214.19,686.89 L 214.19,698 C 207.9,699.23 201.3,700.02 194.45,700.02 z "
         transform="matrix(1.5256531,0,0,-1.5256531,-118.82853,1347.0848)"
         style="font-style:normal;font-variant:normal;font-weight:normal;font-stretch:normal;letter-spacing:normal;word-spacing:normal;text-anchor:start;fill:#005daa;fill-opacity:1;fill-rule:nonzero;stroke:#005daa;stroke-width:0;stroke-linecap:butt;stroke-linejoin:miter;stroke-miterlimit:10.43299961;stroke-dasharray:none;stroke-dashoffset:0;stroke-opacity:1"
         id="path6952" />
      <path
         d="M 199.98,694.22 L 199.92,694.18 L 199.85,694.15 L 199.79,694.11 L 199.73,694.07 L 199.68,694.03 L 199.62,693.99 L 199.57,693.95 L 199.53,693.91 L 199.44,693.82 L 199.35,693.73 L 199.28,693.64 L 199.21,693.55 L 199.15,693.45 L 199.09,693.36 L 199.04,693.26 L 198.99,693.17 L 198.9,692.98 L 198.85,692.89 L 198.8,692.8 L 198.76,692.72 L 198.71,692.63 L 198.65,692.55 L 198.6,692.48 L 198.54,692.41 L 198.47,692.34 L 198.4,692.28 L 198.36,692.25 L 198.32,692.23 L 198.27,692.2 L 198.23,692.18 L 198.18,692.16 L 198.13,692.14 L 198.08,692.12 L 198.02,692.11 L 197.97,692.09 L 197.91,692.08 L 197.84,692.07 L 197.78,692.06 L 197.71,692.06 L 197.64,692.05 L 197.56,692.05 L 197.48,692.06 L 197.4,692.06 L 197.31,692.07 C 195.43,692.24 195.36,693.95 196.32,694.99 C 197.81,696.61 203.41,697.27 207.38,696 C 205.03,695.93 201.69,695.08 199.98,694.22 z "
         transform="matrix(1.5256531,0,0,-1.5256531,-118.82853,1347.0848)"
         style="font-style:normal;font-variant:normal;font-weight:normal;font-stretch:normal;letter-spacing:normal;word-spacing:normal;text-anchor:start;fill:#005daa;fill-opacity:1;fill-rule:nonzero;stroke:#005daa;stroke-width:0;stroke-linecap:butt;stroke-linejoin:miter;stroke-miterlimit:10.43299961;stroke-dasharray:none;stroke-dashoffset:0;stroke-opacity:1"
         id="path6954" />
    </g>
  </g>
</svg>
